<svg width="9" height="11" viewBox="0 0 9 11" fill="none" xmlns="http://www.w3.org/2000/svg">
<path d="M5.64 3.19104e-08C5.84988 5.98729e-05 6.05442 0.0727571 6.22465 0.207794C6.39489 0.342831 6.52218 0.533363 6.5885 0.7524L6.86 1.65H8.5C8.63261 1.65 8.75979 1.70795 8.85355 1.81109C8.94732 1.91424 9 2.05413 9 2.2C9 2.34587 8.94732 2.48576 8.85355 2.58891C8.75979 2.69205 8.63261 2.75 8.5 2.75L8.4985 2.78905L8.065 9.4677C8.03794 9.88384 7.86859 10.2733 7.59102 10.5576C7.31345 10.8419 6.94827 11 6.569 11H2.431C2.05173 11 1.68655 10.8419 1.40898 10.5576C1.13141 10.2733 0.962055 9.88384 0.935 9.4677L0.5015 2.7885C0.500595 2.77569 0.500095 2.76285 0.5 2.75C0.367392 2.75 0.240215 2.69205 0.146447 2.58891C0.0526784 2.48576 0 2.34587 0 2.2C0 2.05413 0.0526784 1.91424 0.146447 1.81109C0.240215 1.70795 0.367392 1.65 0.5 1.65H2.14L2.4115 0.7524C2.47785 0.533274 2.60522 0.342679 2.77555 0.207633C2.94588 0.0725881 3.15054 -5.55837e-05 3.3605 3.19104e-08H5.64ZM7.4985 2.75H1.5015L1.9325 9.38905C1.94148 9.52776 1.99789 9.65759 2.09038 9.75239C2.18287 9.84719 2.30458 9.89993 2.431 9.9H6.569C6.69542 9.89993 6.81713 9.84719 6.90962 9.75239C7.00211 9.65759 7.05852 9.52776 7.0675 9.38905L7.4985 2.75ZM3.5 4.4C3.62247 4.40002 3.74067 4.44948 3.83219 4.53899C3.9237 4.62851 3.98217 4.75186 3.9965 4.88565L4 4.95V7.7C3.99986 7.84018 3.95106 7.97502 3.86358 8.07695C3.77609 8.17889 3.65652 8.24023 3.5293 8.24844C3.40208 8.25666 3.27681 8.21113 3.17908 8.12115C3.08136 8.03118 3.01855 7.90355 3.0035 7.76435L3 7.7V4.95C3 4.80413 3.05268 4.66424 3.14645 4.56109C3.24021 4.45795 3.36739 4.4 3.5 4.4ZM5.5 4.4C5.63261 4.4 5.75978 4.45795 5.85355 4.56109C5.94732 4.66424 6 4.80413 6 4.95V7.7C6 7.84587 5.94732 7.98576 5.85355 8.08891C5.75978 8.19205 5.63261 8.25 5.5 8.25C5.36739 8.25 5.24022 8.19205 5.14645 8.08891C5.05268 7.98576 5 7.84587 5 7.7V4.95C5 4.80413 5.05268 4.66424 5.14645 4.56109C5.24022 4.45795 5.36739 4.4 5.5 4.4ZM5.64 1.1H3.36L3.1935 1.65H5.8065L5.64 1.1Z" fill="#333343"/>
</svg>
