<svg width="19" height="15" viewBox="0 0 19 15" fill="none" xmlns="http://www.w3.org/2000/svg">
<path fill-rule="evenodd" clip-rule="evenodd" d="M18.6169 2.49638C18.869 2.21498 19.0063 1.8428 18.9998 1.45823C18.9933 1.07367 18.8435 0.706748 18.582 0.434777C18.3205 0.162805 17.9677 0.00701648 17.5979 0.000231267C17.2282 -0.00655395 16.8703 0.136194 16.5997 0.398402L6.02276 11.397L2.45841 7.56518C2.32836 7.42385 2.17274 7.31065 2.00049 7.23209C1.82824 7.15352 1.64276 7.11114 1.45471 7.10738C1.26665 7.10362 1.07974 7.13855 0.904716 7.21017C0.729689 7.28179 0.569999 7.38868 0.434825 7.5247C0.299652 7.66073 0.191662 7.8232 0.117062 8.00277C0.0424629 8.18234 0.00272554 8.37548 0.000135355 8.57108C-0.00245483 8.76668 0.032153 8.96089 0.101969 9.14253C0.171785 9.32417 0.275432 9.48967 0.406953 9.62951L4.97991 14.5459C5.11148 14.6878 5.26893 14.8011 5.44305 14.879C5.61717 14.957 5.80447 14.9981 5.99403 14.9999C6.18359 15.0018 6.3716 14.9643 6.54709 14.8898C6.72258 14.8152 6.88203 14.705 7.01614 14.5657L18.6169 2.49638Z" fill="#333343"/>
</svg>
