<svg width="22" height="22" viewBox="0 0 22 22" fill="none" xmlns="http://www.w3.org/2000/svg">
<path d="M22 8.18721L18.8858 9.46804C18.9863 9.97032 19.0365 10.481 19.0365 11C19.0365 11.519 18.9863 12.0297 18.8858 12.532L22 13.8128L20.7694 16.8014L17.6553 15.4954C17.0693 16.3493 16.3493 17.0693 15.4954 17.6553L16.8014 20.7694L13.8128 22L12.532 18.8858C12.0297 18.9863 11.519 19.0365 11 19.0365C10.481 19.0365 9.97032 18.9863 9.46804 18.8858L8.18721 22L5.19863 20.7694L6.50457 17.6553C5.65069 17.0693 4.93075 16.3493 4.34475 15.4954L1.23059 16.8014L0 13.8128L3.11416 12.532C3.0137 12.0297 2.96347 11.519 2.96347 11C2.96347 10.481 3.0137 9.97032 3.11416 9.46804L0 8.18721L1.23059 5.19863L4.34475 6.50457C4.93075 5.65068 5.65069 4.93075 6.50457 4.34475L5.19863 1.23059L8.18721 0L9.46804 3.11416C9.97032 3.0137 10.481 2.96347 11 2.96347C11.519 2.96347 12.0297 3.0137 12.532 3.11416L13.8128 0L16.8014 1.23059L15.4954 4.34475C16.3493 4.93075 17.0693 5.65068 17.6553 6.50457L20.7694 5.19863L22 8.18721ZM11.0251 15.8219C11.6948 15.8219 12.3143 15.6963 12.8836 15.4452C13.4528 15.1941 13.9635 14.8508 14.4155 14.4155C14.8676 13.9802 15.2108 13.4612 15.4452 12.8584C15.6796 12.2557 15.8052 11.6279 15.8219 10.9749C15.8219 10.3219 15.6963 9.70244 15.4452 9.11644C15.1941 8.53044 14.8508 8.01979 14.4155 7.58448C13.9802 7.14916 13.4612 6.80594 12.8584 6.55479C12.2557 6.30365 11.6362 6.17808 11 6.17808C10.3303 6.17808 9.70244 6.30365 9.11644 6.55479C8.53044 6.80594 8.01979 7.15753 7.58448 7.60959C7.14916 8.06164 6.80594 8.5723 6.55479 9.14155C6.30365 9.71081 6.17808 10.3387 6.17808 11.0251C6.17808 11.6948 6.30365 12.3143 6.55479 12.8836C6.80594 13.4528 7.14916 13.9635 7.58448 14.4155C8.01979 14.8676 8.53881 15.2108 9.14155 15.4452C9.74429 15.6796 10.3721 15.8052 11.0251 15.8219Z" fill="#333343"/>
</svg>
